<?xml version="1.0" encoding="UTF-8"?><svg id="Layer_1" xmlns="http://www.w3.org/2000/svg" viewBox="0 0 1024 1024"><defs><style>.cls-1{fill:#d2648a;}.cls-2{fill:#348e9d;}.cls-3{fill:#36a6b7;}</style></defs><g id="_レイヤー_1"><path class="cls-3" d="M420.53,310.88c-13.96,23.21-35.01,57.89-61.28,100.12-17.19,27.6-35.69,47.86-46.08,83.84-2.41,8.24-6.88,25.75-8.05,48.48-.76,14.15-.76,41.68,8.94,74.02,4.61,15.45,17.74,57.41,57.22,94.56,7.08,6.73,40.99,37.63,96.15,51.16,49.04,12.02,87.14,3.43,116.09-3.23,37.35-8.51,46.97-18.54,51.72-26.23,8.73-14.21,7.02-31.04,5.36-47.79-1.79-17.58-3.44-34.54-13.34-39-12.24-5.56-25.31,13.25-49.45,26.09-31.98,17.03-78.2,20.74-116.3,2.2-53.03-25.82-66.3-83.09-68.16-91.67-6.95-32.48.28-60.84,2.54-69.22,1.03-3.91,5.02-18.2,14.51-35.78,22.01-40.86,45.53-47.24,44.43-68.81-.55-11.26-7.22-13.6-16.99-31.04-13.62-24.24-16.92-48.82-17.19-67.64l-.14-.07Z"/><path class="cls-1" d="M501.41,129.25c-7.91-2.82-29.5,29.12-42.98,63.59-6.53,16.76-22.28,58.44-16.3,113.92.69,6.11,9.83,79.17,62.93,137.54,12.31,13.53,20.91,19.57,47.32,48.48,12.72,13.94,28.54,32,46.01,54.32,17.61,22.45,26.41,33.72,34.04,47.31,9.01,15.93,21.6,38.32,25.17,68.05,4.54,37.42-8.39,60.84-2.2,63.59,6.81,3.02,29.16-22.18,40.72-52.53,17.88-46.97,3.51-91.74-.76-104.99-7.29-22.87-17.81-39.76-24.28-49.92-10.59-16.69-20.56-28.02-38.1-47.86-15.61-17.65-32.39-34.75-38.1-40.51-8.53-8.65-12.65-12.57-21.53-21.97,0,0-11.35-12.02-26.89-31.24-8.32-10.23-8.32-10.92-8.12-11.19,2.68-3.5,49.59,26.37,86.66,54.73,58.6,44.84,66.99,58.85,71.87,71,11,27.54,6.95,53.01,11.14,53.22,4.13.21,10.87-24.79,11.14-50.27.41-42.09-16.85-73.54-20.01-79.11-23.31-41.27-62.38-65.51-86.66-80.62-14.37-8.93-27.44-15.38-44.43-31.04-16.78-15.45-27.51-30.83-33.36-39.21-7.63-10.99-18.91-27.26-25.93-46.56-17.19-47.38.96-85.7-7.43-88.72h.07Z"/></g><g id="_レイヤー_1-2"><path class="cls-2" d="M160.67,814.65c3.93,0,7.58,1.14,11.03,3.38,3.42,2.28,6.2,5.3,8.29,9.15,2.12,3.85,3.18,8.13,3.18,12.88s-1.06,8.91-3.18,12.76c-2.12,3.85-4.87,6.91-8.29,9.23s-7.11,3.46-11.03,3.46h-20.81l1.14-2.04v23.4c0,1.96-.59,3.61-1.81,4.91s-2.79,1.96-4.75,1.96-3.42-.67-4.63-1.96c-1.22-1.3-1.81-2.95-1.81-4.91v-65.34c0-1.96.67-3.61,1.96-4.91,1.3-1.3,2.95-1.96,4.91-1.96h25.8ZM160.67,852.63c1.41,0,2.83-.59,4.16-1.81,1.34-1.22,2.47-2.75,3.38-4.67.9-1.92,1.37-3.93,1.37-6.05s-.43-4.2-1.37-6.09c-.9-1.88-2.04-3.42-3.38-4.59-1.34-1.18-2.75-1.77-4.16-1.77h-21.05l1.34-2.04v28.82l-1.26-1.81h20.97Z"/><path class="cls-2" d="M259.32,893.74c-1.96,0-3.57-.67-4.87-1.96-1.3-1.34-1.92-2.95-1.92-4.91v-69.86c0-1.96.63-3.61,1.92-4.91,1.3-1.34,2.91-1.96,4.87-1.96s3.57.67,4.87,1.96c1.3,1.34,1.92,2.95,1.92,4.91v69.82c0,1.96-.63,3.61-1.92,4.91-1.3,1.34-2.91,1.96-4.87,1.96v.04ZM295.25,833.27c1.73,0,3.22.71,4.52,2.16,1.3,1.41,1.92,2.83,1.92,4.16,0,1.81-.9,3.49-2.71,5.11l-34.01,31.3-.55-15.59,25.88-24.98c1.41-1.41,3.1-2.16,4.99-2.16h-.04ZM296.94,893.62c-1.96,0-3.61-.75-4.99-2.24l-20.89-22.15,10.29-9.5,20.34,22.15c1.41,1.49,2.16,3.18,2.16,5.07s-.79,3.57-2.32,4.79-3.06,1.85-4.59,1.85v.04Z"/><path class="cls-2" d="M341.43,894.88c-6.4,0-11.98-1.34-16.65-4.01-4.71-2.67-8.33-6.32-10.84-10.92s-3.77-9.78-3.77-15.59c0-6.79,1.37-12.57,4.12-17.36s6.36-8.44,10.8-11.03,9.15-3.85,14.14-3.85c3.85,0,7.46.79,10.92,2.36,3.42,1.57,6.44,3.73,9.11,6.48,2.63,2.75,4.71,5.93,6.28,9.54,1.57,3.61,2.32,7.46,2.32,11.55-.08,1.81-.79,3.26-2.16,4.4-1.37,1.14-2.95,1.69-4.75,1.69h-43.16l-3.38-11.31h41.47l-2.47,2.28v-3.06c-.16-2.2-.94-4.16-2.32-5.89-1.37-1.73-3.14-3.1-5.18-4.12-2.08-1.02-4.28-1.53-6.6-1.53s-4.36.31-6.32.9-3.65,1.61-5.11,3.06c-1.45,1.41-2.55,3.34-3.38,5.77-.82,2.4-1.26,5.46-1.26,9.15,0,4.08.86,7.5,2.55,10.33,1.69,2.83,3.89,4.99,6.56,6.44,2.67,1.45,5.54,2.2,8.52,2.2,2.79,0,5.03-.24,6.68-.67s2.98-.98,4.01-1.65c1.02-.63,1.92-1.18,2.75-1.65,1.37-.67,2.63-1.02,3.85-1.02,1.65,0,3.02.55,4.12,1.69s1.65,2.43,1.65,3.97c0,2.04-1.06,3.89-3.18,5.54-1.96,1.65-4.71,3.1-8.25,4.36-3.53,1.26-7.19,1.88-10.96,1.88l-.12.08Z"/><path class="cls-2" d="M434.77,818.46c1.96.98,3.1,2.51,3.46,4.63s-.2,4.04-1.65,5.77c-.98,1.37-2.24,2.12-3.77,2.28s-3.1-.16-4.67-.9c-1.81-.82-3.69-1.45-5.69-1.92-2-.43-4.08-.67-6.28-.67-4.08,0-7.7.63-10.92,1.92s-5.93,3.1-8.21,5.5c-2.24,2.36-3.97,5.18-5.14,8.4-1.18,3.22-1.77,6.83-1.77,10.72,0,4.59.67,8.6,1.96,11.98,1.3,3.38,3.14,6.2,5.5,8.48,2.32,2.24,5.11,3.93,8.25,5.03,3.18,1.1,6.6,1.65,10.29,1.65,2.04,0,4.08-.2,6.13-.55,2.04-.39,4.01-1.06,5.89-2.04,1.57-.75,3.14-1.02,4.67-.79s2.83,1.02,3.89,2.36c1.49,1.88,2.04,3.81,1.65,5.81-.43,2-1.57,3.46-3.46,4.36-1.96.98-3.97,1.81-6.05,2.43-2.08.63-4.16,1.14-6.28,1.45s-4.24.51-6.44.51c-5.42,0-10.56-.86-15.43-2.59-4.87-1.73-9.19-4.28-13-7.7-3.81-3.38-6.79-7.62-8.99-12.72-2.2-5.11-3.26-11-3.26-17.67,0-5.81.98-11.15,2.98-16.06s4.83-9.15,8.48-12.72,7.97-6.36,12.92-8.36c4.99-2,10.41-2.98,16.26-2.98,3.3,0,6.56.39,9.74,1.14,3.18.75,6.13,1.85,8.91,3.26h.04Z"/><path class="cls-2" d="M495.88,832.17c1.96,0,3.57.63,4.87,1.92,1.3,1.3,1.92,2.95,1.92,4.99v47.79c0,1.96-.63,3.61-1.92,4.91-1.3,1.34-2.91,1.96-4.87,1.96s-3.57-.67-4.87-1.96c-1.3-1.34-1.92-2.95-1.92-4.91v-5.54l2.47,1.02c0,.98-.51,2.16-1.57,3.57-1.06,1.37-2.47,2.75-4.28,4.12s-3.93,2.51-6.4,3.46c-2.43.94-5.11,1.41-7.97,1.41-5.18,0-9.9-1.34-14.14-4.01-4.2-2.67-7.54-6.36-10.01-11.07-2.43-4.71-3.69-10.13-3.69-16.22s1.22-11.62,3.69-16.34c2.43-4.71,5.73-8.4,9.9-11.07,4.16-2.67,8.76-4.01,13.78-4.01,3.26,0,6.2.51,8.91,1.45s5.07,2.24,7.07,3.73,3.53,3.02,4.63,4.59c1.1,1.53,1.65,2.83,1.65,3.89l-4.08,1.45v-8.25c0-1.96.63-3.61,1.92-4.91,1.3-1.3,2.91-1.96,4.87-1.96l.04-.04ZM473.06,882.47c3.3,0,6.2-.82,8.72-2.47,2.47-1.65,4.44-3.93,5.81-6.79,1.37-2.87,2.08-6.05,2.08-9.62s-.71-6.83-2.08-9.7c-1.37-2.87-3.34-5.11-5.81-6.79-2.47-1.65-5.38-2.47-8.72-2.47s-6.09.82-8.6,2.47c-2.47,1.65-4.44,3.93-5.81,6.79-1.37,2.87-2.08,6.09-2.08,9.7s.71,6.75,2.08,9.62c1.37,2.87,3.34,5.14,5.81,6.79,2.47,1.65,5.34,2.47,8.6,2.47Z"/><path class="cls-2" d="M524.11,893.74c-1.96,0-3.57-.67-4.87-1.96s-1.92-2.95-1.92-4.91v-46.69c0-1.96.63-3.61,1.92-4.91s2.91-1.96,4.87-1.96,3.57.67,4.87,1.96c1.3,1.34,1.92,2.95,1.92,4.91v10.6l-.79-7.58c.82-1.81,1.88-3.42,3.22-4.79,1.3-1.37,2.79-2.55,4.48-3.49,1.65-.94,3.42-1.65,5.3-2.08,1.88-.47,3.77-.67,5.65-.67,2.24,0,4.16.63,5.69,1.92s2.32,2.79,2.32,4.52c0,2.47-.63,4.28-1.92,5.38-1.3,1.1-2.67,1.65-4.2,1.65-1.41,0-2.75-.27-3.89-.79-1.18-.51-2.51-.79-4.01-.79-1.37,0-2.75.31-4.12.94-1.37.63-2.67,1.65-3.85,2.98-1.18,1.34-2.12,3.02-2.83,5.03s-1.06,4.36-1.06,7.07v26.78c0,1.96-.63,3.61-1.92,4.91-1.3,1.34-2.91,1.96-4.87,1.96Z"/><path class="cls-2" d="M611.76,810.14c1.96,0,3.57.63,4.87,1.92,1.3,1.3,1.92,2.95,1.92,4.99v69.82c0,1.96-.63,3.61-1.92,4.91-1.3,1.34-2.91,1.96-4.87,1.96s-3.57-.67-4.87-1.96c-1.3-1.34-1.92-2.95-1.92-4.91v-5.54l2.47,1.02c0,.98-.51,2.16-1.57,3.57-1.06,1.37-2.47,2.75-4.28,4.12s-3.93,2.51-6.4,3.46c-2.43.94-5.11,1.41-7.97,1.41-5.18,0-9.9-1.34-14.14-4.01-4.2-2.67-7.54-6.36-10.01-11.07-2.43-4.71-3.69-10.13-3.69-16.22s1.22-11.62,3.69-16.34c2.43-4.71,5.73-8.4,9.9-11.07,4.16-2.67,8.76-4.01,13.78-4.01,3.26,0,6.2.51,8.91,1.45s5.07,2.24,7.07,3.73c2,1.49,3.53,3.02,4.63,4.59,1.1,1.53,1.65,2.83,1.65,3.89l-4.08,1.45v-30.28c0-1.96.63-3.61,1.92-4.91,1.3-1.34,2.91-1.96,4.87-1.96l.04-.04ZM588.95,882.47c3.3,0,6.2-.82,8.72-2.47,2.47-1.65,4.44-3.93,5.81-6.79,1.37-2.87,2.08-6.05,2.08-9.62s-.71-6.83-2.08-9.7-3.34-5.11-5.81-6.79c-2.47-1.65-5.38-2.47-8.72-2.47s-6.09.82-8.6,2.47c-2.47,1.65-4.44,3.93-5.81,6.79-1.37,2.87-2.08,6.09-2.08,9.7s.71,6.75,2.08,9.62c1.37,2.87,3.34,5.14,5.81,6.79,2.47,1.65,5.34,2.47,8.6,2.47Z"/><path class="cls-2" d="M639.25,893.62c-2.2,0-3.85-.59-5.03-1.77-1.18-1.18-1.77-2.83-1.77-5.03v-1.92c0-2.2.59-3.85,1.77-5.03,1.18-1.18,2.83-1.73,5.03-1.73h1.45c2.2,0,3.85.59,5.03,1.73,1.18,1.18,1.77,2.83,1.77,5.03v1.92c0,2.2-.59,3.85-1.77,5.03-1.18,1.18-2.83,1.77-5.03,1.77h-1.45Z"/><path class="cls-2" d="M688.3,832.17c4.28,0,8.05.43,11.23,1.37,3.18.9,5.69,2.16,7.46,3.77s2.67,3.57,2.67,5.81c0,1.49-.43,2.91-1.37,4.24-.9,1.3-2.24,1.96-3.97,1.96-1.22,0-2.2-.16-2.98-.51s-1.49-.79-2.08-1.3-1.3-1.02-2.16-1.45c-.75-.43-1.88-.82-3.46-1.06-1.53-.27-2.71-.39-3.46-.39-3.85,0-7.11.82-9.78,2.47-2.67,1.65-4.71,3.89-6.17,6.72-1.41,2.83-2.16,6.09-2.16,9.78s.75,6.83,2.2,9.66c1.45,2.83,3.49,5.07,6.09,6.72,2.59,1.65,5.62,2.47,8.99,2.47,1.88,0,3.49-.12,4.87-.35s2.47-.55,3.38-1.02c1.06-.59,2-1.26,2.83-1.92s2.08-1.02,3.73-1.02c1.96,0,3.46.63,4.52,1.85,1.06,1.26,1.57,2.75,1.57,4.59s-1.06,3.61-3.18,5.14-4.87,2.79-8.33,3.73c-3.42.94-7.15,1.41-11.11,1.41-5.97,0-11.11-1.37-15.47-4.12-4.36-2.75-7.74-6.48-10.13-11.23-2.36-4.75-3.57-10.05-3.57-15.94s1.26-11.62,3.77-16.34c2.51-4.71,6.05-8.4,10.52-11.07,4.48-2.67,9.62-4.01,15.43-4.01l.12.04Z"/><path class="cls-2" d="M734.83,886.87c0,1.96-.67,3.61-1.96,4.91s-2.95,1.96-4.91,1.96-3.46-.67-4.75-1.96c-1.3-1.34-1.92-2.95-1.92-4.91v-69.86c0-1.96.67-3.61,1.96-4.91s2.95-1.96,4.91-1.96,3.57.67,4.79,1.96c1.26,1.34,1.85,2.95,1.85,4.91v69.82l.04.04Z"/><path class="cls-2" d="M795.5,833.3c1.96,0,3.57.67,4.87,1.96,1.3,1.34,1.92,2.95,1.92,4.91v28.71c0,7.97-2.24,14.33-6.68,18.97-4.44,4.67-10.84,6.99-19.2,6.99s-14.77-2.32-19.16-6.99c-4.4-4.67-6.6-11-6.6-18.97v-28.71c0-1.96.63-3.61,1.92-4.91s2.91-1.96,4.87-1.96,3.57.67,4.87,1.96c1.3,1.34,1.92,2.95,1.92,4.91v28.71c0,4.59,1.02,8.01,3.06,10.21,2.04,2.24,5.11,3.34,9.15,3.34s7.23-1.1,9.27-3.34c2.04-2.24,3.06-5.62,3.06-10.21v-28.71c0-1.96.63-3.61,1.92-4.91,1.3-1.34,2.91-1.96,4.87-1.96h-.08Z"/><path class="cls-2" d="M848.28,832.17c5.26,0,10.01,1.34,14.18,4.01,4.2,2.67,7.5,6.36,9.94,11.03,2.43,4.67,3.69,10.09,3.69,16.26s-1.22,11.62-3.69,16.34c-2.43,4.71-5.73,8.4-9.82,11.07-4.12,2.67-8.72,4.01-13.86,4.01-3.02,0-5.85-.51-8.48-1.45-2.63-.98-4.95-2.24-6.95-3.73-2-1.49-3.53-3.02-4.63-4.59-1.1-1.53-1.65-2.83-1.65-3.89l3.49-1.45v8.25c0,1.96-.63,3.61-1.92,4.91s-2.91,1.96-4.87,1.96-3.57-.63-4.87-1.92-1.92-2.95-1.92-4.99v-70.96c0-1.96.63-3.61,1.92-4.91s2.91-1.96,4.87-1.96,3.57.67,4.87,1.96c1.3,1.34,1.92,2.95,1.92,4.91v28.71l-1.92-1.02c0-.98.51-2.16,1.57-3.57,1.06-1.37,2.47-2.79,4.28-4.16,1.81-1.37,3.89-2.55,6.28-3.46,2.4-.9,4.87-1.37,7.5-1.37l.08.04ZM846.59,844.61c-3.3,0-6.2.82-8.72,2.47-2.47,1.65-4.44,3.89-5.81,6.72-1.37,2.83-2.08,6.05-2.08,9.66s.71,6.75,2.08,9.66c1.37,2.91,3.34,5.18,5.81,6.83s5.38,2.47,8.72,2.47,6.2-.82,8.64-2.47c2.43-1.65,4.36-3.93,5.77-6.83,1.37-2.91,2.08-6.13,2.08-9.66s-.71-6.83-2.08-9.66c-1.41-2.83-3.3-5.07-5.77-6.72-2.43-1.65-5.34-2.47-8.64-2.47Z"/><path class="cls-3" d="M202.61,835.7c-1.69,2.83-4.24,7.03-7.42,12.17-2.08,3.34-4.32,5.81-5.58,10.17-.27,1.02-.82,3.14-.98,5.89-.08,1.73-.08,5.07,1.1,8.99.55,1.88,2.16,6.99,6.95,11.51.86.82,4.99,4.56,11.66,6.2,5.97,1.45,10.56.43,14.1-.39,4.52-1.02,5.69-2.24,6.28-3.18,1.06-1.73.86-3.77.67-5.81-.2-2.12-.43-4.2-1.61-4.75-1.49-.67-3.06,1.61-6.01,3.18-3.89,2.08-9.5,2.51-14.1.27-6.44-3.14-8.05-10.09-8.25-11.15-.82-3.93,0-7.38.31-8.4.12-.47.63-2.2,1.77-4.36,2.67-4.95,5.54-5.73,5.38-8.36-.08-1.37-.86-1.65-2.08-3.77-1.65-2.95-2.04-5.93-2.08-8.21h-.12Z"/><path class="cls-1" d="M212.43,813.63c-.94-.35-3.57,3.53-5.22,7.74-.79,2.04-2.71,7.11-1.96,13.82.08.75,1.18,9.62,7.62,16.73,1.49,1.65,2.55,2.4,5.73,5.89,1.53,1.69,3.46,3.89,5.58,6.6,2.12,2.75,3.22,4.08,4.12,5.73,1.1,1.92,2.63,4.63,3.06,8.25.55,4.56-1.02,7.38-.27,7.74.82.35,3.53-2.71,4.95-6.36,2.16-5.69.43-11.15-.08-12.76-.9-2.79-2.16-4.83-2.95-6.05-1.3-2.04-2.51-3.42-4.63-5.81-1.88-2.16-3.93-4.2-4.63-4.91-1.02-1.06-1.53-1.53-2.59-2.67,0,0-1.37-1.45-3.26-3.81-1.02-1.26-1.02-1.34-.98-1.37.31-.43,6.01,3.22,10.52,6.64,7.11,5.46,8.13,7.15,8.72,8.64,1.34,3.34.82,6.44,1.34,6.48.51,0,1.34-3.02,1.34-6.13.04-5.11-2.04-8.95-2.43-9.62-2.83-5.03-7.58-7.97-10.52-9.78-1.73-1.1-3.34-1.88-5.38-3.77-2.04-1.88-3.34-3.73-4.04-4.75-.94-1.34-2.28-3.3-3.14-5.65-2.08-5.73.12-10.41-.9-10.8h.04Z"/><path class="cls-2" d="M165.66,785.67c-3.46-.55-8.72,9.9-9.39,19.32-.04.63-.67,10.68,2.59,11.66,2.75.82,7.34-4.87,9.39-10.29,3.34-8.84.82-20.15-2.59-20.7ZM160.83,814.81c-.51.24-.94.27-1.34.2,0,0-.63-.16-1.22-.86-.79-.98-1.14-4.24-.82-8.56l.71-5.3c0-.27.35-3.18,2.79-4.52,2.63-1.45,6.01-.2,7.26,1.81.98,1.57.35,3.61-.86,7.66-.12.31-.98,3.1-2.91,6.2,0,0-1.53,2.47-3.57,3.38h-.04Z"/><path class="cls-2" d="M132.95,785.83c3.46-.67,9.07,9.58,10.09,18.97.08.63,1.06,10.64-2.16,11.78-2.71.94-7.54-4.59-9.74-9.94-3.65-8.76-1.57-20.15,1.81-20.81ZM138.88,814.77c.51.2.94.24,1.37.16,0,0,.63-.16,1.18-.9.75-1.02.98-4.28.51-8.6l-.9-5.3c-.04-.27-.47-3.14-2.98-4.4-2.67-1.34-6.01,0-7.23,2.08-.94,1.61-.24,3.61,1.18,7.62.12.31,1.1,3.06,3.14,6.09,0,0,1.65,2.4,3.69,3.26h.04Z"/><path class="cls-2" d="M896,821.88c.04-.51-.2-1.02-.59-1.37l-9.5-7.58,7.23-12.88c.43-.75.16-1.73-.63-2.16-.47-.27-1.06-.27-1.53,0l-28.35,15.71c-.79.43-1.06,1.37-.63,2.16.12.2.24.35.39.47l9.5,7.58-7.23,12.88c-.43.75-.16,1.73.63,2.16.47.27,1.06.27,1.53,0l28.35-15.71c.47-.24.75-.71.82-1.26h0ZM870.16,833.38l5.18-9.19c.39-.67.24-1.53-.39-2l-8.72-6.95,21.44-11.86-5.18,9.19c-.39.67-.24,1.53.39,2l8.72,6.95s-21.44,11.86-21.44,11.86Z"/></g></svg>